<?xml version="1.0" encoding="utf-8"?>
<!-- Generator: Adobe Illustrator 24.0.1, SVG Export Plug-In . SVG Version: 6.00 Build 0)  -->
<svg version="1.1" id="Layer_1" xmlns="http://www.w3.org/2000/svg" xmlns:xlink="http://www.w3.org/1999/xlink" x="0px" y="0px"
	 viewBox="0 0 300 100" style="enable-background:new 0 0 300 100;" xml:space="preserve">
<style type="text/css">
	.st0{fill:#262E55;}
	.st1{fill:#E0EAEA;}
</style>
<g>
	<polygon class="st0" points="145.7,36.7 145.7,63.3 143.5,63.2 128.5,47.4 128.5,63.3 123.1,63.3 123.1,36.7 125.3,36.7 
		140.3,52.5 140.3,36.7 	"/>
	<polygon class="st0" points="188.1,41.6 175.7,41.6 175.7,47.7 182.6,47.7 182.6,52.3 175.7,52.3 175.7,58.4 188.2,58.4 
		188.2,63.3 170.3,63.3 170.3,36.7 188.1,36.7 	"/>
	<polygon class="st0" points="262.3,42.7 262.3,63.3 256.9,63.3 256.9,36.7 256.9,36.7 	"/>
	<path class="st0" d="M86.4,36.7h-2.2L72.5,63.3h5.8l1.5-3.5h10.9l1.5,3.5h5.8L86.4,36.7z M81.8,55.4l3.5-8.9l3.5,8.9H81.8z"/>
	<path class="st0" d="M49.2,36.7l-5.4,6v12.9c0,1.2-0.3,2-0.9,2.5c-0.6,0.5-1.6,0.7-2.9,0.7c-0.3,0-2.2-0.1-2.2-0.1l0,4.8
		c1.2,0.3,3.2,0.3,3.4,0.3c2.6,0,4.6-0.6,6-1.9c1.4-1.3,2.1-3.2,2.1-5.7L49.2,36.7L49.2,36.7z"/>
	<path class="st0" d="M224.7,48.3l-2.9-1.6c-1.1-0.6-1.8-1.1-2.3-1.6c-0.4-0.5-0.6-1-0.6-1.7c0.1-0.8,0.4-1.4,1.1-1.8
		c0.7-0.4,1.5-0.5,2.4-0.5c1.3,0.1,2.4,0.7,3.4,1.6l3.3-3.6c-0.3-0.3-0.7-0.7-1.1-1c-1.4-1-3.1-1.6-5.2-1.8
		c-2.5-0.2-4.7,0.3-6.5,1.5c-1.8,1.2-2.8,3-3,5.2c-0.2,1.7,0.3,3.3,1.3,4.6c1,1.3,2.5,2.5,4.5,3.6l2.7,1.5c0.8,0.5,1.4,0.8,1.8,1.1
		c0.4,0.2,0.7,0.6,1,1c0.3,0.4,0.4,0.9,0.3,1.5c-0.1,0.9-0.5,1.6-1.2,2.1c-0.7,0.5-1.7,0.6-2.8,0.5c-1.8-0.2-3.4-1-4.8-2.5l-3.3,3.6
		c0.5,0.6,1.1,1.1,1.8,1.6c1.7,1.2,3.7,1.9,5.9,2.1c2.7,0.2,5-0.3,6.8-1.6c1.9-1.3,2.9-3.1,3.1-5.6c0.2-1.8-0.2-3.3-1.2-4.6
		C228.4,50.7,226.8,49.4,224.7,48.3"/>
</g>
<g>
	<polygon class="st0" points="145.7,36.7 145.7,63.3 143.5,63.2 128.5,47.4 128.5,63.3 123.1,63.3 123.1,36.7 125.3,36.7 
		140.3,52.5 140.3,36.7 	"/>
	<polygon class="st0" points="188.1,41.6 175.7,41.6 175.7,47.7 182.6,47.7 182.6,52.3 175.7,52.3 175.7,58.4 188.2,58.4 
		188.2,63.3 170.3,63.3 170.3,36.7 188.1,36.7 	"/>
	<polygon class="st0" points="262.3,42.7 262.3,63.3 256.9,63.3 256.9,36.7 256.9,36.7 	"/>
	<path class="st0" d="M86.4,36.7h-2.2L72.5,63.3h5.8l1.5-3.5h10.9l1.5,3.5h5.8L86.4,36.7z M81.8,55.4l3.5-8.9l3.5,8.9H81.8z"/>
	<path class="st0" d="M49.2,36.7l-5.4,6v12.9c0,1.2-0.3,2-0.9,2.5c-0.6,0.5-1.6,0.7-2.9,0.7c-0.3,0-2.2-0.1-2.2-0.1l0,4.8
		c1.2,0.3,3.2,0.3,3.4,0.3c2.6,0,4.6-0.6,6-1.9c1.4-1.3,2.1-3.2,2.1-5.7L49.2,36.7L49.2,36.7z"/>
	<path class="st0" d="M224.7,48.3l-2.9-1.6c-1.1-0.6-1.8-1.1-2.3-1.6c-0.4-0.5-0.6-1-0.6-1.7c0.1-0.8,0.4-1.4,1.1-1.8
		c0.7-0.4,1.5-0.5,2.4-0.5c1.3,0.1,2.4,0.7,3.4,1.6l3.3-3.6c-0.3-0.3-0.7-0.7-1.1-1c-1.4-1-3.1-1.6-5.2-1.8
		c-2.5-0.2-4.7,0.3-6.5,1.5c-1.8,1.2-2.8,3-3,5.2c-0.2,1.7,0.3,3.3,1.3,4.6c1,1.3,2.5,2.5,4.5,3.6l2.7,1.5c0.8,0.5,1.4,0.8,1.8,1.1
		c0.4,0.2,0.7,0.6,1,1c0.3,0.4,0.4,0.9,0.3,1.5c-0.1,0.9-0.5,1.6-1.2,2.1c-0.7,0.5-1.7,0.6-2.8,0.5c-1.8-0.2-3.4-1-4.8-2.5l-3.3,3.6
		c0.5,0.6,1.1,1.1,1.8,1.6c1.7,1.2,3.7,1.9,5.9,2.1c2.7,0.2,5-0.3,6.8-1.6c1.9-1.3,2.9-3.1,3.1-5.6c0.2-1.8-0.2-3.3-1.2-4.6
		C228.4,50.7,226.8,49.4,224.7,48.3"/>
</g>
<g>
	<polygon class="st0" points="145.7,36.7 145.7,63.3 143.5,63.2 128.5,47.4 128.5,63.3 123.1,63.3 123.1,36.7 125.3,36.7 
		140.3,52.5 140.3,36.7 	"/>
	<polygon class="st0" points="188.1,41.6 175.7,41.6 175.7,47.7 182.6,47.7 182.6,52.3 175.7,52.3 175.7,58.4 188.2,58.4 
		188.2,63.3 170.3,63.3 170.3,36.7 188.1,36.7 	"/>
	<polygon class="st0" points="262.3,42.7 262.3,63.3 256.9,63.3 256.9,36.7 256.9,36.7 	"/>
	<path class="st0" d="M86.4,36.7h-2.2L72.5,63.3h5.8l1.5-3.5h10.9l1.5,3.5h5.8L86.4,36.7z M81.8,55.4l3.5-8.9l3.5,8.9H81.8z"/>
	<path class="st0" d="M49.2,36.7l-5.4,6v12.9c0,1.2-0.3,2-0.9,2.5c-0.6,0.5-1.6,0.7-2.9,0.7c-0.3,0-2.2-0.1-2.2-0.1l0,4.8
		c1.2,0.3,3.2,0.3,3.4,0.3c2.6,0,4.6-0.6,6-1.9c1.4-1.3,2.1-3.2,2.1-5.7L49.2,36.7L49.2,36.7z"/>
	<path class="st0" d="M224.7,48.3l-2.9-1.6c-1.1-0.6-1.8-1.1-2.3-1.6c-0.4-0.5-0.6-1-0.6-1.7c0.1-0.8,0.4-1.4,1.1-1.8
		c0.7-0.4,1.5-0.5,2.4-0.5c1.3,0.1,2.4,0.7,3.4,1.6l3.3-3.6c-0.3-0.3-0.7-0.7-1.1-1c-1.4-1-3.1-1.6-5.2-1.8
		c-2.5-0.2-4.7,0.3-6.5,1.5c-1.8,1.2-2.8,3-3,5.2c-0.2,1.7,0.3,3.3,1.3,4.6c1,1.3,2.5,2.5,4.5,3.6l2.7,1.5c0.8,0.5,1.4,0.8,1.8,1.1
		c0.4,0.2,0.7,0.6,1,1c0.3,0.4,0.4,0.9,0.3,1.5c-0.1,0.9-0.5,1.6-1.2,2.1c-0.7,0.5-1.7,0.6-2.8,0.5c-1.8-0.2-3.4-1-4.8-2.5l-3.3,3.6
		c0.5,0.6,1.1,1.1,1.8,1.6c1.7,1.2,3.7,1.9,5.9,2.1c2.7,0.2,5-0.3,6.8-1.6c1.9-1.3,2.9-3.1,3.1-5.6c0.2-1.8-0.2-3.3-1.2-4.6
		C228.4,50.7,226.8,49.4,224.7,48.3"/>
</g>
</svg>
