<?xml version="1.0" encoding="utf-8"?>
<!-- Generator: Adobe Illustrator 24.0.3, SVG Export Plug-In . SVG Version: 6.00 Build 0)  -->
<svg version="1.1" id="Layer_1" xmlns="http://www.w3.org/2000/svg" xmlns:xlink="http://www.w3.org/1999/xlink" x="0px" y="0px"
	 viewBox="0 0 288 85.8" style="enable-background:new 0 0 288 85.8;" xml:space="preserve">
<style type="text/css">
	.st0{fill:#FFFFFF;}
</style>
<g>
	<polygon class="st0" points="139.1,13.6 139.1,44.2 136.5,44.2 119.2,25.8 119.2,44.2 113,44.2 113,13.6 115.5,13.6 132.8,31.8 
		132.8,13.6 	"/>
	<polygon class="st0" points="188,19.3 173.6,19.3 173.6,26.2 181.6,26.2 181.6,31.6 173.6,31.6 173.6,38.6 188,38.6 188,44.2 
		167.4,44.2 167.4,13.6 188,13.6 	"/>
	<polygon class="st0" points="273.6,20.5 273.6,44.2 267.3,44.2 267.3,13.6 267.3,13.6 	"/>
	<path class="st0" d="M65.3,35.1l4-10.3l4,10.3H65.3z M70.7,13.6h-2.6L54.6,44.2h6.7l1.7-4h12.5l1.7,4h6.7L70.7,13.6z"/>
	<path class="st0" d="M27.7,13.6l-6.2,6.9v14.9c0,1.3-0.4,2.3-1.1,2.8c-0.7,0.6-1.8,0.8-3.3,0.8c-0.4,0-2.5-0.1-2.6-0.1l0,5.5
		c1.4,0.4,3.7,0.3,3.9,0.3c3,0,5.3-0.7,6.9-2.2c1.6-1.5,2.4-3.6,2.4-6.5L27.7,13.6L27.7,13.6z"/>
	<path class="st0" d="M230.2,26.9l-3.3-1.8c-1.2-0.7-2.1-1.3-2.6-1.8c-0.5-0.5-0.7-1.2-0.6-2c0.1-1,0.5-1.7,1.3-2.1
		c0.8-0.4,1.7-0.6,2.8-0.5c1.5,0.1,2.8,0.8,3.9,1.9l3.8-4.2c-0.4-0.4-0.8-0.8-1.3-1.1c-1.6-1.2-3.6-1.9-5.9-2.1
		c-2.9-0.3-5.4,0.3-7.5,1.8c-2.1,1.4-3.2,3.4-3.4,6c-0.2,2,0.3,3.8,1.5,5.3c1.2,1.5,2.9,2.9,5.2,4.2L227,32c0.9,0.5,1.6,1,2.1,1.3
		c0.4,0.3,0.8,0.7,1.1,1.2c0.3,0.5,0.4,1.1,0.4,1.7c-0.1,1-0.5,1.8-1.4,2.4c-0.8,0.5-1.9,0.7-3.3,0.6c-2.1-0.2-4-1.2-5.5-2.9
		l-3.8,4.2c0.6,0.7,1.3,1.3,2,1.8c1.9,1.4,4.2,2.2,6.8,2.4c3.1,0.3,5.7-0.3,7.9-1.8c2.1-1.5,3.3-3.6,3.6-6.4
		c0.2-2.1-0.3-3.8-1.4-5.3C234.4,29.7,232.6,28.3,230.2,26.9"/>
	<path class="st0" d="M209.5,72.3c-0.4,0.3-0.9,0.5-1.5,0.5c-1.2,0-1.8-0.7-1.8-1.9v-6.1h3V64h-3v-2.1h-0.9V64h-1.8v0.8h1.8v6.2
		c0,1.6,0.9,2.6,2.6,2.6c0.7,0,1.5-0.2,2-0.7L209.5,72.3z M188.5,66.1V64h-0.9v9.5h0.9v-5c0-2.4,1.3-3.8,3.4-3.8c0.1,0,0.1,0,0.2,0
		V64C190.4,64,189.1,64.7,188.5,66.1 M170,72.8c-2.2,0-3.8-1.6-3.8-4c0-2.4,1.6-4,3.8-4c2.2,0,3.8,1.6,3.8,4
		C173.8,71.2,172.2,72.8,170,72.8 M170,73.6c2.7,0,4.8-2,4.8-4.8c0-2.8-2-4.8-4.8-4.8s-4.8,2-4.8,4.8
		C165.2,71.6,167.2,73.6,170,73.6 M153.2,60.7c0.6,0,1.1,0.2,1.5,0.5l0.4-0.7c-0.5-0.4-1.2-0.6-1.9-0.6c-1.7,0-2.7,1-2.7,2.6V64
		h-1.8v0.8h1.8v8.8h0.9v-8.8h3V64h-3.1v-1.4C151.4,61.4,152,60.7,153.2,60.7 M132.7,64c-1.8,0-3.2,0.9-3.9,2.3
		c-0.5-1.5-1.8-2.3-3.5-2.3c-1.7,0-3,0.8-3.7,2.1v-2h-0.9v9.5h0.9v-5.1c0-2.3,1.3-3.7,3.5-3.7c1.9,0,3,1.1,3,3.3v5.5h0.9v-5.1
		c0-2.3,1.3-3.7,3.5-3.7c1.9,0,3,1.1,3,3.3v5.5h0.9V68C136.5,65.3,135,64,132.7,64 M103.2,72.8c-2.2,0-3.8-1.6-3.8-4
		c0-2.4,1.6-4,3.8-4c2.2,0,3.8,1.6,3.8,4C107,71.2,105.4,72.8,103.2,72.8 M103.2,73.6c2.7,0,4.8-2,4.8-4.8c0-2.8-2-4.8-4.8-4.8
		c-2.7,0-4.8,2-4.8,4.8C98.4,71.6,100.4,73.6,103.2,73.6 M83.2,73.6c1.5,0,2.8-0.6,3.6-1.8l-0.7-0.5c-0.7,1-1.8,1.4-2.9,1.4
		c-2.2,0-3.9-1.6-3.9-4c0-2.4,1.6-4,3.9-4c1.2,0,2.2,0.5,2.9,1.4l0.7-0.5C86,64.5,84.7,64,83.2,64c-2.8,0-4.8,2-4.8,4.8
		C78.4,71.6,80.4,73.6,83.2,73.6"/>
</g>
</svg>
